<svg width="12" height="11" viewBox="0 0 12 11" fill="none" xmlns="http://www.w3.org/2000/svg">
<path d="M5.82292 8.25C5.93066 8.25 6.03399 8.21049 6.11018 8.14017C6.18637 8.06984 6.22917 7.97446 6.22917 7.875V4.875C6.22917 4.77554 6.18637 4.68016 6.11018 4.60984C6.03399 4.53951 5.93066 4.5 5.82292 4.5C5.71517 4.5 5.61184 4.53951 5.53565 4.60984C5.45947 4.68016 5.41667 4.77554 5.41667 4.875V7.875C5.41667 8.082 5.59867 8.25 5.82292 8.25ZM5.82292 2.875C5.96658 2.875 6.10435 2.92768 6.20593 3.02145C6.30752 3.11521 6.36458 3.24239 6.36458 3.375C6.36458 3.50761 6.30752 3.63479 6.20593 3.72855C6.10435 3.82232 5.96658 3.875 5.82292 3.875C5.67926 3.875 5.54148 3.82232 5.4399 3.72855C5.33832 3.63479 5.28125 3.50761 5.28125 3.375C5.28125 3.24239 5.33832 3.11521 5.4399 3.02145C5.54148 2.92768 5.67926 2.875 5.82292 2.875Z" fill="white"/>
<path fill-rule="evenodd" clip-rule="evenodd" d="M0 5.375C0 2.4065 2.60704 0 5.82292 0C9.03879 0 11.6458 2.4065 11.6458 5.375C11.6458 8.3435 9.03879 10.75 5.82292 10.75C2.60704 10.75 0 8.3435 0 5.375ZM5.82292 0.75C4.49407 0.75 3.21965 1.23728 2.28002 2.10463C1.34038 2.97199 0.8125 4.14837 0.8125 5.375C0.8125 6.60163 1.34038 7.77801 2.28002 8.64537C3.21965 9.51272 4.49407 10 5.82292 10C7.15176 10 8.42618 9.51272 9.36582 8.64537C10.3055 7.77801 10.8333 6.60163 10.8333 5.375C10.8333 4.14837 10.3055 2.97199 9.36582 2.10463C8.42618 1.23728 7.15176 0.75 5.82292 0.75Z" fill="white"/>
</svg>
