<?xml version="1.0" standalone="no"?>
<!DOCTYPE svg PUBLIC "-//W3C//DTD SVG 20010904//EN"
 "http://www.w3.org/TR/2001/REC-SVG-20010904/DTD/svg10.dtd">
<svg version="1.0" xmlns="http://www.w3.org/2000/svg"
 width="613.000000pt" height="487.000000pt" viewBox="0 0 613.000000 487.000000"
 preserveAspectRatio="xMidYMid meet">

<g transform="translate(0.000000,487.000000) scale(0.100000,-0.100000)"
fill="#000000" stroke="none">
<path d="M2288 4419 c-160 -38 -300 -158 -367 -317 -38 -90 -42 -193 -39 -923
l3 -694 24 -68 c51 -144 164 -263 307 -323 l69 -29 740 -3 c528 -2 757 0 800
8 188 36 347 177 407 359 21 65 21 75 19 735 l-3 668 -299 299 -299 299 -663
-1 c-364 -1 -679 -5 -699 -10z m1037 -694 c392 -226 505 -295 505 -310 0 -12
-20 -15 -110 -15 l-110 0 0 -234 0 -234 -90 -51 c-49 -28 -97 -51 -105 -51
-13 0 -15 40 -15 304 l0 304 -159 91 c-87 50 -163 91 -169 91 -7 0 -84 -41
-172 -91 l-160 -91 0 -298 c0 -190 -4 -301 -10 -305 -6 -3 -50 17 -99 45 l-88
51 -7 61 c-3 33 -6 141 -6 239 l0 179 -105 0 c-61 0 -105 4 -105 10 0 9 213
139 535 325 199 115 217 125 224 121 3 -2 114 -65 246 -141z m-206 -340 c66
-88 68 -85 -48 -85 -56 0 -101 3 -101 6 0 10 93 134 101 134 4 0 25 -25 48
-55z m-119 -452 c0 -250 -1 -257 -22 -280 -24 -26 -65 -30 -93 -9 -15 11 -21
32 -26 98 -10 109 -11 433 -2 441 3 4 37 7 75 7 l68 0 0 -257z m280 2 l0 -256
-25 -24 c-33 -34 -77 -33 -104 1 -20 25 -21 39 -21 280 l0 254 75 0 75 0 0
-255z"/>
<path d="M1290 1510 l0 -300 45 0 44 0 3 128 3 127 46 3 c38 2 50 -1 72 -24
26 -26 27 -31 27 -130 l0 -104 45 0 45 0 0 110 c0 92 -4 118 -20 151 l-21 40
23 32 c18 26 23 45 23 99 0 60 -3 70 -30 99 -50 53 -97 69 -207 69 l-98 0 0
-300z m227 178 c28 -26 30 -67 4 -99 -16 -20 -28 -23 -77 -24 l-59 0 -3 59
c-4 82 -1 86 60 86 39 0 57 -5 75 -22z"/>
<path d="M1717 1804 c-4 -4 -7 -139 -7 -301 l0 -293 140 0 140 0 0 45 0 45
-83 0 c-51 0 -88 5 -95 12 -12 12 -17 114 -6 142 5 13 23 16 95 16 l89 0 0 45
0 45 -89 0 c-72 0 -90 3 -95 16 -9 22 -7 107 2 121 5 7 40 13 92 15 l85 3 0
45 0 45 -131 3 c-71 1 -133 -1 -137 -4z"/>
<path d="M2050 1761 l0 -50 58 -3 57 -3 3 -247 2 -248 45 0 45 0 0 250 0 249
58 3 57 3 0 45 0 45 -162 3 -163 2 0 -49z"/>
<path d="M2435 1598 c-3 -117 -5 -251 -3 -298 l3 -85 48 -3 47 -3 -2 298 -3
298 -41 3 -42 3 -7 -213z"/>
<path d="M2627 1803 c-4 -3 -7 -138 -7 -300 l0 -293 45 0 44 0 3 128 3 127 47
3 c40 3 52 -1 73 -22 24 -24 25 -31 25 -131 l0 -105 48 0 47 0 -3 112 c-3 88
-8 122 -23 151 l-19 38 22 30 c19 25 23 44 23 97 0 81 -18 110 -89 147 -43 21
-64 25 -141 25 -51 0 -95 -3 -98 -7z m223 -115 c27 -30 26 -73 -5 -103 -19
-20 -34 -25 -73 -25 -36 0 -52 4 -56 16 -8 21 -8 119 1 127 3 4 30 7 59 7 42
0 58 -5 74 -22z"/>
<path d="M3050 1808 c0 -2 -3 -137 -7 -300 l-6 -298 142 0 141 0 0 45 0 44
-87 3 -88 3 -3 83 -3 82 91 0 90 0 0 45 0 45 -90 0 -90 0 0 75 0 75 91 0 90 0
-3 48 -3 47 -132 3 c-73 1 -133 1 -133 0z"/>
<path d="M3420 1773 c0 -21 -2 -156 -5 -300 l-4 -263 50 0 49 0 0 220 c0 121
4 220 9 220 4 0 25 -25 45 -55 20 -30 38 -55 41 -55 3 0 21 25 41 55 20 30 41
55 45 55 5 0 10 -66 11 -147 1 -82 3 -168 4 -193 2 -25 3 -57 3 -72 1 -26 4
-28 46 -28 l45 0 -2 298 -3 297 -51 3 -50 3 -38 -56 c-22 -30 -42 -58 -47 -60
-4 -3 -24 19 -45 47 -48 66 -50 68 -101 68 -43 0 -43 0 -43 -37z"/>
<path d="M3966 1802 c-6 -10 -106 -553 -106 -576 0 -12 11 -16 45 -16 40 0 45
3 45 23 0 41 13 48 75 45 57 -3 59 -4 67 -35 8 -31 11 -33 54 -33 44 0 45 1
40 28 -4 15 -26 144 -51 287 -25 143 -47 266 -50 273 -5 14 -111 17 -119 4z
m85 -299 c10 -65 19 -124 19 -130 0 -13 -80 -19 -92 -8 -4 5 28 224 38 254 9
27 17 0 35 -116z"/>
<path d="M4184 1796 c-3 -8 -4 -29 -2 -48 3 -33 3 -33 61 -36 l57 -3 0 -249 0
-250 45 0 45 0 2 248 3 247 58 3 57 3 0 49 0 50 -160 0 c-129 0 -162 -3 -166
-14z"/>
<path d="M4570 1510 l0 -300 141 0 140 0 -3 43 -3 42 -90 5 -90 5 0 80 0 80
93 3 93 3 -3 42 -3 42 -90 5 -90 5 -3 72 -3 72 93 3 93 3 0 45 0 45 -137 3
-138 3 0 -301z"/>
</g>
</svg>
